<svg width="959" height="959" viewBox="0 0 959 959" fill="none" xmlns="http://www.w3.org/2000/svg">
<path fill-rule="evenodd" clip-rule="evenodd" d="M119.875 242.75C119.875 241.093 121.218 239.75 122.875 239.75H836.125C837.782 239.75 839.125 241.093 839.125 242.75V316.667C839.125 318.324 837.782 319.667 836.125 319.667H122.875C121.218 319.667 119.875 318.324 119.875 316.667V242.75ZM119.875 517.458C119.875 518.563 120.77 519.458 121.875 519.458H837.125C838.23 519.458 839.125 518.563 839.125 517.458V441.542C839.125 440.437 838.23 439.542 837.125 439.542H121.875C120.77 439.542 119.875 440.437 119.875 441.542V517.458ZM119.875 717.25C119.875 718.355 120.77 719.25 121.875 719.25H837.125C838.23 719.25 839.125 718.355 839.125 717.25V641.333C839.125 640.229 838.23 639.333 837.125 639.333H121.875C120.77 639.333 119.875 640.229 119.875 641.333V717.25Z" fill="#1D7AC4"/>
</svg>
